<?xml version="1.0" encoding="utf-8"?>
<!-- Generator: Adobe Illustrator 26.0.2, SVG Export Plug-In . SVG Version: 6.00 Build 0)  -->
<svg version="1.1" id="Layer_1" xmlns="http://www.w3.org/2000/svg" xmlns:xlink="http://www.w3.org/1999/xlink" x="0px" y="0px"
	 viewBox="0 0 48 48" style="enable-background:new 0 0 48 48;" xml:space="preserve">
<style type="text/css">
	.st0{fill:#FF6418;}
</style>
<g>
	<path class="st0" d="M24,0C10.8,0,0,10.8,0,24s10.8,24,24,24s24-10.8,24-24S37.2,0,24,0z M24,4c11.1,0,20,8.9,20,20
		c0,3.9-1.1,7.6-3.2,10.8c-9.2-9.3-24.1-9.3-33.3-0.1l-0.1,0.1c-6-9.3-3.3-21.6,6-27.6C16.4,5.1,20.1,4,24,4z"/>
	<path class="st0" d="M24,22.9c3.9,0,6.9-3.2,6.9-6.9S27.9,9.1,24,9.1s-6.9,3.2-6.9,6.9S20.1,22.9,24,22.9z"/>
</g>
</svg>
